<?xml version="1.0" standalone="no"?>
<!DOCTYPE svg PUBLIC "-//W3C//DTD SVG 20010904//EN"
 "http://www.w3.org/TR/2001/REC-SVG-20010904/DTD/svg10.dtd">
<svg version="1.0" xmlns="http://www.w3.org/2000/svg"
 width="512.000000pt" height="512.000000pt" viewBox="0 0 512.000000 512.000000"
 preserveAspectRatio="xMidYMid meet">
<metadata>
Created by potrace 1.14, written by Peter Selinger 2001-2017
</metadata>
<g transform="translate(0.000000,512.000000) scale(0.100000,-0.100000)"
fill="#000000" stroke="none">
<path d="M2590 4733 c-14 -2 -61 -15 -105 -29 -240 -76 -404 -266 -448 -522
-33 -185 9 -376 109 -507 15 -20 25 -37 23 -38 -2 -1 -29 -13 -59 -25 -36 -15
-57 -19 -64 -12 -20 20 -54 9 -163 -53 -146 -84 -273 -174 -361 -259 -33 -31
-33 -32 -62 -15 -36 22 -150 65 -187 71 -15 3 -53 8 -84 10 -49 4 -59 2 -76
-17 -36 -41 -43 -73 -39 -179 5 -131 11 -164 49 -268 40 -114 40 -152 -3 -295
-34 -113 -44 -138 -99 -256 -35 -74 -52 -86 -176 -115 -123 -29 -169 -66 -216
-169 -71 -158 -37 -385 77 -498 48 -48 96 -67 169 -67 87 0 122 -17 162 -79
20 -31 67 -87 105 -124 37 -38 66 -72 64 -75 -11 -20 -16 -226 -5 -264 23 -89
104 -160 212 -188 75 -20 196 -8 264 26 66 34 120 94 135 150 l12 42 45 -14
c125 -40 318 -75 422 -78 24 -1 26 -5 28 -51 2 -27 4 -70 5 -95 12 -193 73
-294 204 -335 152 -48 324 -10 419 94 46 51 95 188 129 366 4 22 8 45 10 50 1
6 7 33 13 60 6 28 16 70 23 94 l13 44 104 29 c57 16 105 27 106 26 1 -2 32
-62 70 -135 82 -161 116 -202 202 -245 59 -29 75 -32 152 -32 71 0 96 5 141
26 67 31 107 69 133 127 18 40 19 58 13 175 -3 72 -9 158 -11 191 -14 157 -20
138 60 207 39 35 89 85 111 111 21 26 47 58 57 70 33 39 112 180 144 257 48
114 81 233 99 350 9 61 9 342 0 410 -40 312 -171 585 -374 782 -234 227 -505
325 -810 295 -50 -5 -62 9 -38 45 28 43 52 161 53 254 2 361 -284 669 -632
678 -55 2 -111 1 -125 -1z"/>
</g>
</svg>
